<?xml version="1.0" encoding="utf-8"?>
<!-- Generator: Adobe Illustrator 24.2.1, SVG Export Plug-In . SVG Version: 6.00 Build 0)  -->
<svg version="1.1" id="Layer_1" xmlns="http://www.w3.org/2000/svg" xmlns:xlink="http://www.w3.org/1999/xlink" x="0px" y="0px"
	 viewBox="0 0 50 50" style="enable-background:new 0 0 50 50;" xml:space="preserve">
<style type="text/css">
	.st0{fill:#FEFEFE;}
	.st1{fill:#656C7E;}
	.st2{fill:#5E6578;}
	.st3{fill:#C0C4CC;}
	.st4{fill:#FEA727;}
	.st5{fill:#5D6577;}
	.st6{fill:#9BA0AB;}
	.st7{fill:#99A0AE;}
	.st8{fill:#737A8A;}
	.st9{fill:#6F7686;}
	.st10{fill:#767C8C;}
	.st11{fill:#FEF9F2;}
	.st12{fill:#EFF0F1;}
	.st13{fill:#FEECD0;}
	.st14{fill:#EDEEF0;}
	.st15{fill:#E6E7EA;}
	.st16{fill:#FEEFD9;}
	.st17{fill:#FEF4E5;}
	.st18{fill:#5B6275;}
	.st19{fill:#FEA626;}
	.st20{fill:#FEC97B;}
	.st21{fill:#5A6275;}
	.st22{fill:#939AA8;}
	.st23{fill:#9399A8;}
	.st24{fill:#5C6476;}
	.st25{fill:#5C6477;}
	.st26{fill:#5D6578;}
	.st27{fill:#60687A;}
	.st28{fill:#5D6477;}
	.st29{fill:#666D7F;}
	.st30{fill:#60677A;}
	.st31{fill:#5F6679;}
	.st32{fill:#62697B;}
	.st33{fill:#61697B;}
	.st34{fill:#606779;}
	.st35{fill:#687081;}
	.st36{fill:#676E7F;}
	.st37{fill:#626A7B;}
	.st38{fill:#646B7D;}
	.st39{fill:#636B7C;}
	.st40{fill:#6E7585;}
	.st41{fill:#61687A;}
	.st42{fill:#717888;}
	.st43{fill:#6B7283;}
	.st44{fill:#6E7485;}
	.st45{fill:#6C7384;}
	.st46{fill:#787F8E;}
	.st47{fill:#707787;}
	.st48{fill:#747B8B;}
	.st49{fill:#868C9A;}
	.st50{fill:#818795;}
	.st51{fill:#7D8392;}
	.st52{fill:#7B8291;}
	.st53{fill:#7D8492;}
	.st54{fill:#797F8E;}
	.st55{fill:#838997;}
	.st56{fill:#7F8594;}
	.st57{fill:#858B99;}
	.st58{fill:#808694;}
	.st59{fill:#727989;}
	.st60{fill:#9A9EAA;}
	.st61{fill:#777E8D;}
	.st62{fill:#79808F;}
	.st63{fill:#7A8190;}
	.st64{fill:#6D7485;}
	.st65{fill:#818796;}
	.st66{fill:#808695;}
	.st67{fill:#848A98;}
	.st68{fill:#6D7484;}
	.st69{fill:#8A909D;}
	.st70{fill:#828896;}
	.st71{fill:#E0E2E5;}
	.st72{fill:#686F81;}
	.st73{fill:#8B919E;}
	.st74{fill:#7B8190;}
	.st75{fill:#4FABF5;}
	.st76{fill:#4DAAF5;}
	.st77{fill:#797F8F;}
	.st78{fill:#4BA9F5;}
	.st79{fill:#636A7C;}
	.st80{fill:#9398A5;}
	.st81{fill:#8B909E;}
	.st82{fill:#E1E2E6;}
	.st83{fill:#E7E8EB;}
	.st84{fill:#DDDEE2;}
	.st85{fill:#DDDFE3;}
	.st86{fill:#D8DADE;}
	.st87{fill:#D1D3D8;}
	.st88{fill:#9096A2;}
	.st89{fill:#E9EAEC;}
	.st90{fill:#979CA8;}
	.st91{fill:#898F9C;}
	.st92{fill:#DFE0E4;}
	.st93{fill:#959AA7;}
	.st94{fill:#D9DADF;}
	.st95{fill:#757C8C;}
	.st96{fill:#787E8E;}
	.st97{fill:#C7C9D0;}
	.st98{fill:#646C7D;}
	.st99{fill:#999FAE;}
	.st100{fill:#989EAD;}
	.st101{fill:#A2A8B4;}
	.st102{fill:#FEFDFC;}
	.st103{fill:#F3F4F5;}
	.st104{fill:#ECEEF0;}
	.st105{fill:#DDDFE2;}
	.st106{fill:#DCDEE1;}
	.st107{fill:#FEFCFA;}
	.st108{fill:#FEFAF5;}
	.st109{fill:#FEFAF3;}
	.st110{fill:#FEF7EC;}
	.st111{fill:#FEFBF5;}
	.st112{fill:#FEF5E8;}
	.st113{fill:#FEECD2;}
	.st114{fill:#FEF6EB;}
	.st115{fill:#FEF5E9;}
	.st116{fill:#FEF9F1;}
	.st117{fill:#FEEDD4;}
	.st118{fill:#FEECD3;}
	.st119{fill:#FECF8A;}
	.st120{fill:#FEEED7;}
	.st121{fill:#FED497;}
	.st122{fill:#FEF6E9;}
	.st123{fill:#FEDAA4;}
	.st124{fill:#FEECD1;}
	.st125{fill:#FECE87;}
	.st126{fill:#FEFBF8;}
	.st127{fill:#FEF5E7;}
	.st128{fill:#FEF8F0;}
	.st129{fill:#FEF8EE;}
	.st130{fill:#FEF3E3;}
	.st131{fill:#FEF2DF;}
	.st132{fill:#FEF8EF;}
	.st133{fill:#FEF0DC;}
	.st134{fill:#FEF0DB;}
	.st135{fill:#FEF2E0;}
	.st136{fill:#FEE5C0;}
	.st137{fill:#FED599;}
	.st138{fill:#FEC46D;}
	.st139{fill:#FEC776;}
	.st140{fill:#FED291;}
	.st141{fill:#FDF8F0;}
	.st142{fill:#FEF7ED;}
	.st143{fill:#FCF2E4;}
	.st144{fill:#FEF1DD;}
	.st145{fill:#FEEFDA;}
	.st146{fill:#FEC878;}
	.st147{fill:#FED9A3;}
	.st148{fill:#FEDBA7;}
	.st149{fill:#F0F0F2;}
	.st150{fill:#D9DBE1;}
	.st151{fill:#E4E5E9;}
	.st152{fill:#C2C5CE;}
	.st153{fill:#DEE0E5;}
	.st154{fill:#CDD0D6;}
	.st155{fill:#D3D5DB;}
	.st156{fill:#F0A537;}
	.st157{fill:#F6A530;}
	.st158{fill:#F4A838;}
	.st159{fill:#F1F2F4;}
	.st160{fill:#F4EADD;}
	.st161{fill:#F4E8D7;}
	.st162{fill:#B7BBC5;}
	.st163{fill:#B39D81;}
	.st164{fill:#EDA843;}
	.st165{fill:#EEA73F;}
	.st166{fill:#EAEBEE;}
	.st167{fill:#E8E9EC;}
	.st168{fill:#E0E1E5;}
	.st169{fill:#E2E4E7;}
	.st170{fill:#F7F7F8;}
	.st171{fill:#F9F9FA;}
	.st172{fill:#F8F8F9;}
	.st173{fill:#ECEDEF;}
	.st174{fill:#F5F5F6;}
	.st175{fill:#FBFBFB;}
	.st176{fill:#EFEFF1;}
	.st177{fill:#E1E3E6;}
	.st178{fill:#F4F4F6;}
	.st179{fill:#FAFAFB;}
	.st180{fill:#F0F1F2;}
	.st181{fill:#EFF0F2;}
	.st182{fill:#E3E5E8;}
	.st183{fill:#F4F5F6;}
	.st184{fill:#EDEDEF;}
	.st185{fill:#F9FAFA;}
	.st186{fill:#FCFCFD;}
	.st187{fill:#969BA7;}
	.st188{fill:#E5E7E9;}
	.st189{fill:#ECECEE;}
	.st190{fill:#FBFCFC;}
	.st191{fill:#DEDFE3;}
	.st192{fill:#E5E6E9;}
	.st193{fill:#E2E3E6;}
	.st194{fill:#DFE1E4;}
	.st195{fill:#FDFDFD;}
	.st196{fill:#EDEFF1;}
	.st197{fill:#939AA9;}
	.st198{fill:#5F6779;}
	.st199{fill:#636B7D;}
	.st200{fill:#626A7C;}
	.st201{fill:#666E7F;}
	.st202{fill:#697081;}
	.st203{fill:#7C8291;}
	.st204{fill:#F8F9F9;}
	.st205{fill:#C3C6CC;}
	.st206{fill:#C2C6CC;}
	.st207{fill:#C0C3CC;}
	.st208{fill:#5B6375;}
	.st209{fill:#5B6376;}
	.st210{fill:#5C6376;}
	.st211{fill:#3D71DD;}
	.st212{fill:#3C70DC;}
	.st213{fill:#5E6678;}
	.st214{fill:#6F7687;}
	.st215{fill:#646C7E;}
	.st216{fill:#6E7586;}
	.st217{fill:#676F80;}
	.st218{fill:#757B8B;}
	.st219{fill:#717787;}
	.st220{fill:#6B7383;}
	.st221{fill:#6A7182;}
	.st222{fill:#73798A;}
	.st223{fill:#757C8B;}
	.st224{fill:#7A8090;}
	.st225{fill:#4773D2;}
	.st226{fill:#3B6FDC;}
	.st227{fill:#707687;}
	.st228{fill:#777D8D;}
	.st229{fill:#7C8392;}
	.st230{fill:#7F8593;}
	.st231{fill:#6C7383;}
	.st232{fill:#707788;}
	.st233{fill:#8C919E;}
	.st234{fill:#697182;}
	.st235{fill:#9196A3;}
	.st236{fill:#697082;}
	.st237{fill:#4EAAF5;}
	.st238{fill:#4CA9F5;}
	.st239{fill:#7D8391;}
	.st240{fill:#3A6FDC;}
	.st241{fill:#888D9B;}
	.st242{fill:#868B99;}
	.st243{fill:#9095A2;}
	.st244{fill:#878C9A;}
	.st245{fill:#999EA9;}
	.st246{fill:#A3A8B2;}
	.st247{fill:#A4A8B2;}
	.st248{fill:#A0A5B0;}
	.st249{fill:#959AA6;}
	.st250{fill:#8E93A0;}
	.st251{fill:#6C7484;}
	.st252{fill:#898E9C;}
	.st253{fill:#989DA8;}
	.st254{fill:#9EA3AE;}
	.st255{fill:#7E8493;}
	.st256{fill:#9297A4;}
	.st257{fill:#8E94A1;}
	.st258{fill:#7E8492;}
	.st259{fill:#747A8A;}
	.st260{fill:#9499A6;}
	.st261{fill:#6D7585;}
	.st262{fill:#9A9FAA;}
	.st263{fill:#999EAA;}
	.st264{fill:#878D9B;}
	.st265{fill:#A1A6B0;}
	.st266{fill:#FEFBF7;}
	.st267{fill:#FEF3E4;}
	.st268{fill:#FEF4E6;}
	.st269{fill:#FEE9CB;}
	.st270{fill:#FEE2B9;}
	.st271{fill:#FEDDAC;}
	.st272{fill:#FEFAF4;}
	.st273{fill:#FEC672;}
	.st274{fill:#FEFCF9;}
	.st275{fill:#FEFBF6;}
	.st276{fill:#FEF1DE;}
	.st277{fill:#FEF2E1;}
	.st278{fill:#FEF0DD;}
	.st279{fill:#FEEDD5;}
	.st280{fill:#FEE5C1;}
	.st281{fill:#FEDFB0;}
	.st282{fill:#FEE2BA;}
	.st283{fill:#FECB7F;}
	.st284{fill:#FECE88;}
	.st285{fill:#FEE4BE;}
	.st286{fill:#FEE0B3;}
	.st287{fill:#FEEBCE;}
	.st288{fill:#FEEED6;}
	.st289{fill:#FEE3BC;}
	.st290{fill:#FEDBA8;}
	.st291{fill:#FDFAF6;}
	.st292{fill:#FDF8EF;}
	.st293{fill:#FDF8F1;}
	.st294{fill:#FEEACC;}
	.st295{fill:#FECC81;}
	.st296{fill:#FADCB0;}
	.st297{fill:#FECD84;}
	.st298{fill:#FEC571;}
	.st299{fill:#ECEDF0;}
	.st300{fill:#E8EAED;}
	.st301{fill:#D9DBE0;}
	.st302{fill:#C2C6CE;}
	.st303{fill:#F5F6F7;}
	.st304{fill:#EEEFF1;}
	.st305{fill:#E3E5E9;}
	.st306{fill:#E9EAED;}
	.st307{fill:#F2F2F4;}
	.st308{fill:#DCDEE2;}
	.st309{fill:#E1E3E7;}
	.st310{fill:#E7E8EC;}
	.st311{fill:#DBDDE2;}
	.st312{fill:#DADCE1;}
	.st313{fill:#CCCFD6;}
	.st314{fill:#BDC1CA;}
	.st315{fill:#F6A735;}
	.st316{fill:#F5A531;}
	.st317{fill:#F5F0E9;}
	.st318{fill:#EBECEF;}
	.st319{fill:#F6F3F0;}
	.st320{fill:#FCAA32;}
	.st321{fill:#C5A271;}
	.st322{fill:#C4C8D0;}
	.st323{fill:#B6BAC4;}
	.st324{fill:#F9CD8D;}
	.st325{fill:#ECA43B;}
	.st326{fill:#E7A342;}
	.st327{fill:#EEA63D;}
	.st328{fill:#F5F5F7;}
	.st329{fill:#DAA251;}
	.st330{fill:#F7F8F8;}
	.st331{fill:#F3F3F5;}
	.st332{fill:#F6F6F7;}
	.st333{fill:#FBFBFC;}
	.st334{fill:#FCFCFC;}
	.st335{fill:#F3F3F4;}
	.st336{fill:#F6F7F7;}
	.st337{fill:#F7F8F9;}
	.st338{fill:#E4E5E8;}
	.st339{fill:#EBEBEE;}
	.st340{fill:#EEEEF0;}
	.st341{fill:#D8D9DE;}
	.st342{fill:#E8EAEC;}
	.st343{fill:#BBBFC6;}
	.st344{fill:#B3B7BF;}
	.st345{fill:#B0B4BD;}
	.st346{fill:#BEC1C8;}
	.st347{fill:#949BA9;}
	.st348{fill:#999FAD;}
	.st349{fill:#9CA3B0;}
	.st350{fill:#9DA3B1;}
	.st351{fill:#A1A7B4;}
	.st352{fill:#9EA5B2;}
	.st353{fill:#979EAC;}
</style>
<g>
	<path class="st19" d="M14.89,13.83c0.96-1.21,2.42-1.92,3.21-3.33c0.3-0.54,1.01-0.81,1.67-0.81c5.44-0.01,10.83-0.13,15.52,3.61
		c1.27,1.01,2.89,1.32,3.2,3.3c0.1,0.65,0.76,1.31,1.65,1.47c4.24,0.76,6.18,3.39,6.1,7.62c-0.95,0.5-1.6,0.09-2.13-0.69
		c-0.34-1.38-0.35-2.96-2.1-3.7c0,1.68,1.36,3,0.93,4.66c-0.5,0.78-1.21,0.65-1.89,0.39c-3.03-1.21-5.56-0.19-7.78,1.85
		c-0.93,0.86-1.82,1.4-3.13,1.52c-1.52,0.14-2.92,0.71-3.24,2.54c-0.16,0.92-0.87,1.24-1.71,1.31c-0.94,0.08-1.84,0.23-2.42,1.1
		c-1.34,0.86-2.07-0.95-3.59-0.7c1.57,0.66,2.78,1.69,4.26,0.41c0.42-0.12,0.99-0.29,1.24-0.05c2.03,2,4.78,1.25,7.15,1.92
		c0.01,1.25-0.1,1.35-2.06,1.93c-0.56-0.09-1.08,0.27-1.36,0.19c0.47-0.19,1.26-0.12,2.03-0.24c2.25-0.03,4.25-0.8,6.1-2.03
		c0.97-0.2,1.95-0.4,2.75,0.45c-3.39,3.47-7.63,4.18-12.19,3.61c-3.74-0.46-7.48-1.01-10.89-2.77c-1.08-0.56-2.23-1.11-2.84-2.17
		c-0.93-1.62-1.89-2.98-4.07-2.61c-0.44,0.07-0.87-0.23-1-0.67c-0.74-2.59-1.45-5.18-2.14-7.79c-0.06-0.23,0.15-0.54,0.23-0.81
		c0.65-0.92,1.65-0.65,2.53-0.71c3.48-0.24,6.94,0.36,10.41,0.41c2.49,0.03,2.59-0.15,2.24-2.52c-0.17-1.2-0.54-2.35-0.93-3.49
		c-0.56-1.62-1.27-2.83-3.39-2.1C16.38,15.19,15.25,15.14,14.89,13.83z"/>
	<path class="st23" d="M32.04,36.59c-1.47-0.01-2.93-0.03-4.4-0.03c-0.9-0.01-1.73,0.12-2.12-1.14c-0.37-1.21-1.58-0.36-2.38-0.56
		c-0.3,0.15-0.5,0.07-0.58-0.27c-0.23-1.53,0.78-1.59,1.86-1.54c1.07,0.05,1.79-0.04,2.03-1.45c0.37-2.17,2.31-2.46,4.08-2.53
		c0.78-0.03,1.22-0.12,1.76-0.76c1.13-1.35,2.52-2.27,4.34-2.79c1.79-0.51,3.29-0.42,4.84,0.39c0.47,0.25,0.9,0.47,1.29-0.1
		c0.44-0.5,0.77-1.21,1.65-0.9c0.61,0.26,1.22,0.51,1.82,0.77c2.25,3.06,2.67,6.64,2.94,10.27c0.09,1.25-0.71,1.4-1.65,1.32
		c-2.75-0.24-5.5-0.49-8.24-0.74c-0.98,0-1.97,0-2.95,0C34.91,37.09,33.49,37.76,32.04,36.59z"/>
	<path class="st23" d="M14.89,13.83c1,0.49,1.84,0.95,3.08,0.14c1.14-0.75,2.2,0.21,2.75,1.29c1.14,2.25,1.53,4.71,1.83,7.19
		c0.16,1.31-0.78,1.26-1.68,1.28c-3.7,0.06-7.35-0.83-11.06-0.5c-1.13,0.1-2.28,0.06-3.41,0.08c-2.27,0.97-3.38-1.78-5.39-1.71
		c-0.06,0-0.23-0.5-0.19-0.75c0.07-0.5,0.5-0.71,0.95-0.64c1.38,0.21,2.02-0.47,2.42-1.7c0.34-1.07,1.4-1.57,2.34-1.57
		c1.36,0,2.22-0.62,3.08-1.49C11.06,13.97,12.93,13.75,14.89,13.83z"/>
	<path class="st141" d="M44.42,24.92c-0.55,0.3-1.1,0.6-1.65,0.9c-0.55-1.81-1.11-3.61-1.67-5.44
		C43.54,20.95,44.19,21.86,44.42,24.92z"/>
	<path class="st142" d="M36.27,24.4c-1.14-0.68-2.78-2.46-2.81-3.23c-0.02-0.58-0.34-1.63,0.36-1.63c0.71,0,1.86,0.22,2.06,1.3
		C36.1,21.99,36.15,23.19,36.27,24.4z"/>
	<path class="st129" d="M10.25,31.42c-1.23-2.19-1.45-4.08-2.02-5.85c-0.2-0.6,0.27-0.7,0.71-0.75c0.34-0.04,0.75-0.16,0.78,0.38
		C9.84,27.06,10.86,28.82,10.25,31.42z"/>
	<path class="st143" d="M32.04,36.59c1.43-0.02,2.86-0.05,4.29-0.07c-1.67,1.66-3.75,2.09-6,2.01c-0.25-0.3-1.11,0.11-0.87-0.76
		C30.41,37.57,31.29,37.21,32.04,36.59z"/>
	<path class="st128" d="M22.57,34.59c0.19,0.09,0.39,0.18,0.58,0.27c-1.76,1.43-3.11,0.06-4.53-0.68c-0.23-0.12-0.46-0.47-0.19-0.69
		c0.24-0.19,0.62-0.27,0.95-0.28C20.64,33.18,21.3,34.6,22.57,34.59z"/>
	<path class="st132" d="M30.9,12.88c-2.84,0.33-4.85-0.98-7.05-1.29C26.14,11.45,28.39,11.51,30.9,12.88z"/>
	<path class="st144" d="M14.83,28.36c0.49,0.67,1.01,1.32,1.46,2.01c0.17,0.26,0.36,0.68-0.07,0.88c-0.35,0.16-0.68-0.02-0.86-0.37
		c-0.33-0.68-0.65-1.38-0.97-2.07C14.22,28.36,14.44,28.28,14.83,28.36z"/>
	<path class="st145" d="M39.27,22.09c-0.57-0.81-1.65-1.36-1.45-2.84c0.83,0.48,1.29,1.01,1.54,1.74
		C39.52,21.37,39.56,21.75,39.27,22.09z"/>
	<path class="st146" d="M15.31,34.43c1,0.56,2.01,1.12,3.01,1.68C17.06,36.11,15.99,35.69,15.31,34.43z"/>
	<path class="st125" d="M29.47,37.78c0.29,0.25,0.58,0.51,0.87,0.76c-0.84,0-1.67,0-2.79,0C28.28,38.09,28.8,37.79,29.47,37.78z"/>
	<path class="st140" d="M39.27,22.09c0.03-0.37,0.06-0.73,0.09-1.1c0.47,0.59,0.81,1.24,0.95,2.06
		C39.54,23.02,39.4,22.56,39.27,22.09z"/>
	<path class="st147" d="M13.49,31.16c-0.82-0.42-0.98-1.01-1.09-1.83C13.21,29.75,13.37,30.35,13.49,31.16z"/>
	<path class="st148" d="M14.83,28.36c-0.15,0.15-0.29,0.3-0.44,0.45c-0.3-0.35-0.84-0.79-0.37-1.17
		C14.31,27.4,14.7,27.94,14.83,28.36z"/>
	<path class="st156" d="M31.28,31.08c-0.37,0.9-0.84,1.49-1.87,0.89c-0.29-0.17-0.8-0.42-0.56-0.72
		C29.53,30.37,30.4,30.59,31.28,31.08z"/>
	<path class="st157" d="M39.35,28.48c-0.73-0.09-1.78-0.45-1.35-1.14c0.6-0.96,1.71-0.44,2.55,0.15
		C40.42,28.14,39.98,28.41,39.35,28.48z"/>
	<path class="st158" d="M44.17,27.47c0.51-0.91,0.93-0.49,1.3,0.11c0.25,0.42,0.49,0.9-0.21,1.16c-0.45,0.16-0.91,0.28-1.37,0.41
		C43.54,28.52,43.52,27.94,44.17,27.47z"/>
	<path class="st159" d="M44.63,33.65c0.09,0.53-0.26,0.63-0.62,0.63c-0.39,0-0.95,0.21-1.09-0.31c-0.13-0.47,0.32-0.76,0.73-0.88
		C44.14,32.95,44.45,33.23,44.63,33.65z"/>
	<path class="st160" d="M39.35,28.48c0.4-0.33,0.8-0.66,1.2-1c0.48,0.31,0.71,0.91,0.41,1.23C40.46,29.27,39.87,28.75,39.35,28.48z"
		/>
	<path class="st161" d="M44.17,27.47c-0.09,0.56-0.19,1.12-0.29,1.68c-0.36,0.22-0.93,0.44-0.95-0.1
		C42.9,28.33,43.23,27.58,44.17,27.47z"/>
	<path class="st162" d="M46.7,32.04c0.51,0.48,0.79,0.88,0.6,1.42c-0.04,0.1-0.43,0.22-0.49,0.16
		C46.41,33.21,46.57,32.71,46.7,32.04z"/>
	<path class="st163" d="M40.34,34.01c-0.57,0.47-1.02,0.24-1.84,0.35C39.3,33.74,39.75,33.95,40.34,34.01z"/>
	<path class="st164" d="M17.47,17.33c0.14-1.1,0.54-1.55,1.27-1.67c0.09-0.01,0.33,0.27,0.33,0.42
		C19.09,16.98,18.27,16.84,17.47,17.33z"/>
	<path class="st165" d="M15.79,16.47c-1,0.52-1.55,0.07-2.08-0.36c-0.06-0.05,0.04-0.48,0.13-0.51
		C14.73,15.32,15.04,16.11,15.79,16.47z"/>
	<path class="st166" d="M7.12,19.35c-0.34-0.04-0.66-0.03-0.62-0.4c0.02-0.13,0.25-0.3,0.41-0.33c0.26-0.05,0.58-0.03,0.53,0.36
		C7.42,19.12,7.22,19.24,7.12,19.35z"/>
</g>
</svg>
