<?xml version="1.0" encoding="utf-8"?>
<!-- Generator: Adobe Illustrator 24.2.1, SVG Export Plug-In . SVG Version: 6.00 Build 0)  -->
<svg version="1.1" id="Layer_1" xmlns="http://www.w3.org/2000/svg" xmlns:xlink="http://www.w3.org/1999/xlink" x="0px" y="0px"
	 viewBox="0 0 50 50" style="enable-background:new 0 0 50 50;" xml:space="preserve">
<style type="text/css">
	.st0{fill:#FEFEFE;}
	.st1{fill:#656C7E;}
	.st2{fill:#5E6578;}
	.st3{fill:#C0C4CC;}
	.st4{fill:#FEA727;}
	.st5{fill:#5D6577;}
	.st6{fill:#9BA0AB;}
	.st7{fill:#99A0AE;}
	.st8{fill:#737A8A;}
	.st9{fill:#6F7686;}
	.st10{fill:#767C8C;}
	.st11{fill:#FEF9F2;}
	.st12{fill:#EFF0F1;}
	.st13{fill:#FEECD0;}
	.st14{fill:#EDEEF0;}
	.st15{fill:#E6E7EA;}
	.st16{fill:#FEEFD9;}
	.st17{fill:#FEF4E5;}
	.st18{fill:#5B6275;}
	.st19{fill:#FEA626;}
	.st20{fill:#FEC97B;}
	.st21{fill:#5A6275;}
	.st22{fill:#939AA8;}
	.st23{fill:#9399A8;}
	.st24{fill:#5C6476;}
	.st25{fill:#5C6477;}
	.st26{fill:#5D6578;}
	.st27{fill:#60687A;}
	.st28{fill:#5D6477;}
	.st29{fill:#666D7F;}
	.st30{fill:#60677A;}
	.st31{fill:#5F6679;}
	.st32{fill:#62697B;}
	.st33{fill:#61697B;}
	.st34{fill:#606779;}
	.st35{fill:#687081;}
	.st36{fill:#676E7F;}
	.st37{fill:#626A7B;}
	.st38{fill:#646B7D;}
	.st39{fill:#636B7C;}
	.st40{fill:#6E7585;}
	.st41{fill:#61687A;}
	.st42{fill:#717888;}
	.st43{fill:#6B7283;}
	.st44{fill:#6E7485;}
	.st45{fill:#6C7384;}
	.st46{fill:#787F8E;}
	.st47{fill:#707787;}
	.st48{fill:#747B8B;}
	.st49{fill:#868C9A;}
	.st50{fill:#818795;}
	.st51{fill:#7D8392;}
	.st52{fill:#7B8291;}
	.st53{fill:#7D8492;}
	.st54{fill:#797F8E;}
	.st55{fill:#838997;}
	.st56{fill:#7F8594;}
	.st57{fill:#858B99;}
	.st58{fill:#808694;}
	.st59{fill:#727989;}
	.st60{fill:#9A9EAA;}
	.st61{fill:#777E8D;}
	.st62{fill:#79808F;}
	.st63{fill:#7A8190;}
	.st64{fill:#6D7485;}
	.st65{fill:#818796;}
	.st66{fill:#808695;}
	.st67{fill:#848A98;}
	.st68{fill:#6D7484;}
	.st69{fill:#8A909D;}
	.st70{fill:#828896;}
	.st71{fill:#E0E2E5;}
	.st72{fill:#686F81;}
	.st73{fill:#8B919E;}
	.st74{fill:#7B8190;}
	.st75{fill:#4FABF5;}
	.st76{fill:#4DAAF5;}
	.st77{fill:#797F8F;}
	.st78{fill:#4BA9F5;}
	.st79{fill:#636A7C;}
	.st80{fill:#9398A5;}
	.st81{fill:#8B909E;}
	.st82{fill:#E1E2E6;}
	.st83{fill:#E7E8EB;}
	.st84{fill:#DDDEE2;}
	.st85{fill:#DDDFE3;}
	.st86{fill:#D8DADE;}
	.st87{fill:#D1D3D8;}
	.st88{fill:#9096A2;}
	.st89{fill:#E9EAEC;}
	.st90{fill:#979CA8;}
	.st91{fill:#898F9C;}
	.st92{fill:#DFE0E4;}
	.st93{fill:#959AA7;}
	.st94{fill:#D9DADF;}
	.st95{fill:#757C8C;}
	.st96{fill:#787E8E;}
	.st97{fill:#C7C9D0;}
	.st98{fill:#646C7D;}
	.st99{fill:#999FAE;}
	.st100{fill:#989EAD;}
	.st101{fill:#A2A8B4;}
	.st102{fill:#FEFDFC;}
	.st103{fill:#F3F4F5;}
	.st104{fill:#ECEEF0;}
	.st105{fill:#DDDFE2;}
	.st106{fill:#DCDEE1;}
	.st107{fill:#FEFCFA;}
	.st108{fill:#FEFAF5;}
	.st109{fill:#FEFAF3;}
	.st110{fill:#FEF7EC;}
	.st111{fill:#FEFBF5;}
	.st112{fill:#FEF5E8;}
	.st113{fill:#FEECD2;}
	.st114{fill:#FEF6EB;}
	.st115{fill:#FEF5E9;}
	.st116{fill:#FEF9F1;}
	.st117{fill:#FEEDD4;}
	.st118{fill:#FEECD3;}
	.st119{fill:#FECF8A;}
	.st120{fill:#FEEED7;}
	.st121{fill:#FED497;}
	.st122{fill:#FEF6E9;}
	.st123{fill:#FEDAA4;}
	.st124{fill:#FEECD1;}
	.st125{fill:#FECE87;}
	.st126{fill:#FEFBF8;}
	.st127{fill:#FEF5E7;}
	.st128{fill:#FEF8F0;}
	.st129{fill:#FEF8EE;}
	.st130{fill:#FEF3E3;}
	.st131{fill:#FEF2DF;}
	.st132{fill:#FEF8EF;}
	.st133{fill:#FEF0DC;}
	.st134{fill:#FEF0DB;}
	.st135{fill:#FEF2E0;}
	.st136{fill:#FEE5C0;}
	.st137{fill:#FED599;}
	.st138{fill:#FEC46D;}
	.st139{fill:#FEC776;}
	.st140{fill:#FED291;}
	.st141{fill:#FDF8F0;}
	.st142{fill:#FEF7ED;}
	.st143{fill:#FCF2E4;}
	.st144{fill:#FEF1DD;}
	.st145{fill:#FEEFDA;}
	.st146{fill:#FEC878;}
	.st147{fill:#FED9A3;}
	.st148{fill:#FEDBA7;}
	.st149{fill:#F0F0F2;}
	.st150{fill:#D9DBE1;}
	.st151{fill:#E4E5E9;}
	.st152{fill:#C2C5CE;}
	.st153{fill:#DEE0E5;}
	.st154{fill:#CDD0D6;}
	.st155{fill:#D3D5DB;}
	.st156{fill:#F0A537;}
	.st157{fill:#F6A530;}
	.st158{fill:#F4A838;}
	.st159{fill:#F1F2F4;}
	.st160{fill:#F4EADD;}
	.st161{fill:#F4E8D7;}
	.st162{fill:#B7BBC5;}
	.st163{fill:#B39D81;}
	.st164{fill:#EDA843;}
	.st165{fill:#EEA73F;}
	.st166{fill:#EAEBEE;}
	.st167{fill:#E8E9EC;}
	.st168{fill:#E0E1E5;}
	.st169{fill:#E2E4E7;}
	.st170{fill:#F7F7F8;}
	.st171{fill:#F9F9FA;}
	.st172{fill:#F8F8F9;}
	.st173{fill:#ECEDEF;}
	.st174{fill:#F5F5F6;}
	.st175{fill:#FBFBFB;}
	.st176{fill:#EFEFF1;}
	.st177{fill:#E1E3E6;}
	.st178{fill:#F4F4F6;}
	.st179{fill:#FAFAFB;}
	.st180{fill:#F0F1F2;}
	.st181{fill:#EFF0F2;}
	.st182{fill:#E3E5E8;}
	.st183{fill:#F4F5F6;}
	.st184{fill:#EDEDEF;}
	.st185{fill:#F9FAFA;}
	.st186{fill:#FCFCFD;}
	.st187{fill:#969BA7;}
	.st188{fill:#E5E7E9;}
	.st189{fill:#ECECEE;}
	.st190{fill:#FBFCFC;}
	.st191{fill:#DEDFE3;}
	.st192{fill:#E5E6E9;}
	.st193{fill:#E2E3E6;}
	.st194{fill:#DFE1E4;}
	.st195{fill:#FDFDFD;}
	.st196{fill:#EDEFF1;}
	.st197{fill:#939AA9;}
	.st198{fill:#5F6779;}
	.st199{fill:#636B7D;}
	.st200{fill:#626A7C;}
	.st201{fill:#666E7F;}
	.st202{fill:#697081;}
	.st203{fill:#7C8291;}
	.st204{fill:#F8F9F9;}
	.st205{fill:#C3C6CC;}
	.st206{fill:#C2C6CC;}
	.st207{fill:#C0C3CC;}
	.st208{fill:#5B6375;}
	.st209{fill:#5B6376;}
	.st210{fill:#5C6376;}
	.st211{fill:#3D71DD;}
	.st212{fill:#3C70DC;}
	.st213{fill:#5E6678;}
	.st214{fill:#6F7687;}
	.st215{fill:#646C7E;}
	.st216{fill:#6E7586;}
	.st217{fill:#676F80;}
	.st218{fill:#757B8B;}
	.st219{fill:#717787;}
	.st220{fill:#6B7383;}
	.st221{fill:#6A7182;}
	.st222{fill:#73798A;}
	.st223{fill:#757C8B;}
	.st224{fill:#7A8090;}
	.st225{fill:#4773D2;}
	.st226{fill:#3B6FDC;}
	.st227{fill:#707687;}
	.st228{fill:#777D8D;}
	.st229{fill:#7C8392;}
	.st230{fill:#7F8593;}
	.st231{fill:#6C7383;}
	.st232{fill:#707788;}
	.st233{fill:#8C919E;}
	.st234{fill:#697182;}
	.st235{fill:#9196A3;}
	.st236{fill:#697082;}
	.st237{fill:#4EAAF5;}
	.st238{fill:#4CA9F5;}
	.st239{fill:#7D8391;}
	.st240{fill:#3A6FDC;}
	.st241{fill:#888D9B;}
	.st242{fill:#868B99;}
	.st243{fill:#9095A2;}
	.st244{fill:#878C9A;}
	.st245{fill:#999EA9;}
	.st246{fill:#A3A8B2;}
	.st247{fill:#A4A8B2;}
	.st248{fill:#A0A5B0;}
	.st249{fill:#959AA6;}
	.st250{fill:#8E93A0;}
	.st251{fill:#6C7484;}
	.st252{fill:#898E9C;}
	.st253{fill:#989DA8;}
	.st254{fill:#9EA3AE;}
	.st255{fill:#7E8493;}
	.st256{fill:#9297A4;}
	.st257{fill:#8E94A1;}
	.st258{fill:#7E8492;}
	.st259{fill:#747A8A;}
	.st260{fill:#9499A6;}
	.st261{fill:#6D7585;}
	.st262{fill:#9A9FAA;}
	.st263{fill:#999EAA;}
	.st264{fill:#878D9B;}
	.st265{fill:#A1A6B0;}
	.st266{fill:#FEFBF7;}
	.st267{fill:#FEF3E4;}
	.st268{fill:#FEF4E6;}
	.st269{fill:#FEE9CB;}
	.st270{fill:#FEE2B9;}
	.st271{fill:#FEDDAC;}
	.st272{fill:#FEFAF4;}
	.st273{fill:#FEC672;}
	.st274{fill:#FEFCF9;}
	.st275{fill:#FEFBF6;}
	.st276{fill:#FEF1DE;}
	.st277{fill:#FEF2E1;}
	.st278{fill:#FEF0DD;}
	.st279{fill:#FEEDD5;}
	.st280{fill:#FEE5C1;}
	.st281{fill:#FEDFB0;}
	.st282{fill:#FEE2BA;}
	.st283{fill:#FECB7F;}
	.st284{fill:#FECE88;}
	.st285{fill:#FEE4BE;}
	.st286{fill:#FEE0B3;}
	.st287{fill:#FEEBCE;}
	.st288{fill:#FEEED6;}
	.st289{fill:#FEE3BC;}
	.st290{fill:#FEDBA8;}
	.st291{fill:#FDFAF6;}
	.st292{fill:#FDF8EF;}
	.st293{fill:#FDF8F1;}
	.st294{fill:#FEEACC;}
	.st295{fill:#FECC81;}
	.st296{fill:#FADCB0;}
	.st297{fill:#FECD84;}
	.st298{fill:#FEC571;}
	.st299{fill:#ECEDF0;}
	.st300{fill:#E8EAED;}
	.st301{fill:#D9DBE0;}
	.st302{fill:#C2C6CE;}
	.st303{fill:#F5F6F7;}
	.st304{fill:#EEEFF1;}
	.st305{fill:#E3E5E9;}
	.st306{fill:#E9EAED;}
	.st307{fill:#F2F2F4;}
	.st308{fill:#DCDEE2;}
	.st309{fill:#E1E3E7;}
	.st310{fill:#E7E8EC;}
	.st311{fill:#DBDDE2;}
	.st312{fill:#DADCE1;}
	.st313{fill:#CCCFD6;}
	.st314{fill:#BDC1CA;}
	.st315{fill:#F6A735;}
	.st316{fill:#F5A531;}
	.st317{fill:#F5F0E9;}
	.st318{fill:#EBECEF;}
	.st319{fill:#F6F3F0;}
	.st320{fill:#FCAA32;}
	.st321{fill:#C5A271;}
	.st322{fill:#C4C8D0;}
	.st323{fill:#B6BAC4;}
	.st324{fill:#F9CD8D;}
	.st325{fill:#ECA43B;}
	.st326{fill:#E7A342;}
	.st327{fill:#EEA63D;}
	.st328{fill:#F5F5F7;}
	.st329{fill:#DAA251;}
	.st330{fill:#F7F8F8;}
	.st331{fill:#F3F3F5;}
	.st332{fill:#F6F6F7;}
	.st333{fill:#FBFBFC;}
	.st334{fill:#FCFCFC;}
	.st335{fill:#F3F3F4;}
	.st336{fill:#F6F7F7;}
	.st337{fill:#F7F8F9;}
	.st338{fill:#E4E5E8;}
	.st339{fill:#EBEBEE;}
	.st340{fill:#EEEEF0;}
	.st341{fill:#D8D9DE;}
	.st342{fill:#E8EAEC;}
	.st343{fill:#BBBFC6;}
	.st344{fill:#B3B7BF;}
	.st345{fill:#B0B4BD;}
	.st346{fill:#BEC1C8;}
	.st347{fill:#949BA9;}
	.st348{fill:#999FAD;}
	.st349{fill:#9CA3B0;}
	.st350{fill:#9DA3B1;}
	.st351{fill:#A1A7B4;}
	.st352{fill:#9EA5B2;}
	.st353{fill:#979EAC;}
</style>
<g>
	<path class="st19" d="M28.03,40.04c-4.98-0.29-9.91-0.82-14.3-3.52c-0.52-0.32-1.1-0.72-1.38-1.22c-0.93-1.66-1.81-3.25-4.17-2.83
		c-0.65,0.11-0.95-0.49-1.12-1.06c-0.65-2.21-1.29-4.43-1.94-6.64c-0.34-1.17,0.35-1.54,1.28-1.46c1.85,0.16,2.31-0.71,2.55-2.44
		c0.55-3.96,3.48-6.29,6.51-8.42c0.61-0.43,1.22-0.81,1.69-1.41c0.4-0.52,0.97-0.8,1.61-0.86C24.1,9.65,29.3,9.76,33.7,13.48
		c0.05,0.04,0.1,0.1,0.16,0.1c2.01,0.15,2.83,1.5,3.36,3.23c0.23,0.75,0.82,1.33,1.6,1.43c5.92,0.76,7.46,6.96,5.05,11.24
		c-2.7,4.8-6.52,8.94-12.3,10.44c-0.24,0.06-0.49,0.12-0.73,0.13C29.91,40.05,28.97,40.04,28.03,40.04z"/>
	<path class="st107" d="M41.15,31.02c0.72-4.03-0.09-7.42-1.81-10.8c1.71-0.09,2.66,0.8,3.22,2.1
		C43.85,25.31,43.49,28.11,41.15,31.02z"/>
	<path class="st108" d="M35.12,36.6c-2.71,2.69-6.19,1.79-9.46,1.86C28.8,37.74,31.69,35.87,35.12,36.6z"/>
	<path class="st109" d="M32.15,19.22c3.39,0.67,2.41,3.48,3.03,5.57C32.95,23.53,32,21.8,32.15,19.22z"/>
	<path class="st109" d="M9.49,29.94C9.42,30.31,9.68,30.88,9.06,31c-0.61,0.12-0.67-0.44-0.79-0.83c-0.46-1.48-0.89-2.97-1.33-4.46
		c-0.17-0.6,0.03-0.96,0.7-1c0.5-0.02,0.99-0.11,1.1,0.63C8.96,26.87,9.24,28.39,9.49,29.94z"/>
	<path class="st11" d="M22.39,34.89c-1.76,0.84-4.18,0.45-5.22-0.7c-0.15-0.16-0.31-0.58-0.28-0.6c0.3-0.19,0.64-0.47,0.96-0.46
		C19.54,33.15,20.62,34.56,22.39,34.89z"/>
	<path class="st110" d="M33.51,35c1.41-2.05,3.59-1.79,5.26-2.76C38.34,34,36.72,34.87,33.51,35z"/>
	<path class="st111" d="M29.9,12.97c-3.06,0.62-5.41-1.06-7.98-1.22C24.6,11.25,27.17,11.45,29.9,12.97z"/>
	<path class="st110" d="M14.41,18.3c-0.09,1.38-0.09,1.38-2.7,3.91c-0.3-2.45-0.14-2.69,2.69-4.33c0.12,0.09,0.16,0.18,0.12,0.28
		C14.48,18.25,14.44,18.3,14.41,18.3z"/>
	<path class="st112" d="M12.87,27.32c0.7,0.91,1.39,1.84,2.12,2.73c0.36,0.44,0.6,0.88,0.08,1.26c-0.52,0.37-0.75-0.16-0.98-0.51
		C13.4,29.78,12.83,28.71,12.87,27.32z"/>
	<path class="st113" d="M38.91,23.19c-1.23-0.75-1.68-1.82-2.38-2.68c-0.26-0.32-0.53-0.9-0.13-1.18c0.57-0.41,0.85,0.23,1.12,0.61
		C38.16,20.85,38.71,21.81,38.91,23.19z"/>
	<path class="st114" d="M39.84,26.95c0.14,1.19,0.22,2.16-0.18,3.22c-0.85-0.3-1.52-0.92-1.49-1.64
		C38.2,27.74,39.13,27.44,39.84,26.95z"/>
	<path class="st115" d="M36.75,23.44c1.08,0.98,1.8,1.58,1.73,2.56c-0.02,0.26-0.88,0.75-0.95,0.69
		C36.72,25.95,37.06,24.92,36.75,23.44z"/>
	<path class="st116" d="M17.66,17.54c-0.02-0.94,0.04-1.64,1.05-1.63c0.33,0,0.92,0.04,0.81,0.52
		C19.32,17.35,18.37,17.12,17.66,17.54z"/>
	<path class="st117" d="M11.07,28.23c0.61,1.22,1,2,1.47,2.93C11.27,30.51,11.25,30.48,11.07,28.23z"/>
	<path class="st118" d="M14.79,34.8c0.7,0.44,1.4,0.88,2.23,1.4c-1.27,0.29-1.82-0.67-2.62-1.01C14.32,34.84,14.39,34.66,14.79,34.8
		z"/>
	<path class="st119" d="M14.79,34.8c-0.13,0.13-0.26,0.26-0.39,0.39c-0.55-0.28-0.97-0.69-1.35-1.45
		C13.85,33.96,14.33,34.36,14.79,34.8z"/>
	<path class="st120" d="M14.41,18.3c0-0.14,0-0.28-0.01-0.42c0.36-0.48,0.78-0.86,1.43-0.94C15.97,18.1,14.89,17.87,14.41,18.3z"/>
	<path class="st121" d="M15.22,15.37c-0.52,0.36-1.04,0.73-1.56,1.09c0.13-0.78,0.54-1.24,1.12-1.53
		C14.95,15.06,15.19,15.11,15.22,15.37z"/>
	<path class="st122" d="M24.35,36.34c-0.18,0.42-0.48,0.42-0.78,0.38c-0.22-0.03-0.55-0.1-0.28-0.39c0.17-0.19,0.51-0.26,0.79-0.31
		C24.15,36,24.28,36.24,24.35,36.34z"/>
	<path class="st123" d="M27.39,36.5c-0.56,0.19-1.12,0.4-1.29-0.04c-0.18-0.45,0.27-0.58,0.68-0.4
		C26.93,36.13,27.06,36.27,27.39,36.5z"/>
	<path class="st124" d="M15.22,15.37c-0.15-0.15-0.29-0.29-0.44-0.44c0.41-0.18,0.8-0.49,1.32-0.33
		C16.01,15.16,15.6,15.25,15.22,15.37z"/>
	<path class="st125" d="M30.04,24.27c-0.08-0.05-0.22-0.13-0.36-0.21c0.11-0.13,0.2-0.33,0.33-0.38c0.1-0.04,0.35,0.09,0.4,0.21
		C30.5,24.09,30.32,24.21,30.04,24.27z"/>
</g>
</svg>
